# xmcd
#
# Track frame offsets:
#	150
#	14927
#	31127
#	46275
#	58870
#	70609
#	87900
#	101272
#	115218
#	133975
#	148837
#	162330
#	173878
#	191785
#	207724
#	223052
#	239358
#	258303
#	276052
#
# Disc length: 3904 seconds
#
# Revision: 1
# Processed by: cddbd v1.5.2PL0 Copyright (c) Steve Scherf et al.
# Submitted via: audiograbber 1.83.01
#
DISCID=280f3e13
DTITLE=Various Artist - Country Line Dancing
DYEAR=2000
DGENRE=Country
TTITLE0=Van Tress - Achy Breaky Heart
TTITLE1=Bellamy - Red Neck Girl
TTITLE2=Brock - Turner - Watermelon Crawl
TTITLE3=Chesnut - Trouble
TTITLE4=Richardson - White Lightnin´
TTITLE5=McBride - Jackson - Chattahoochee
TTITLE6=Bellamy - Get Into Reggae Cowboy
TTITLE7=Dunn - Boot Scootin´ Boogie
TTITLE8=Cain - DiPiero - Earthquake
TTITLE9=Vickery - Kemp - The Fireman
TTITLE10=Ripley - Richmond - Baby Likes To Rock It
TTITLE11=Williams - Born To Boogie
TTITLE12=Dunn - Hamilton - Shine Down On Me
TTITLE13=Daniels - Di Gregorio - Cain - Hyward - Gavin - Boogie Woogie Fiddle C
TTITLE13=ountry Blues
TTITLE14=Howell - Seals - God Bless Texas
TTITLE15=Pennington - LeMaire - Super Love
TTITLE16=Bellamy - Red Neck Girl vocal
TTITLE17=Brock - Turner - Watermelon Crawl vocal
TTITLE18=Howell - Seals - God Bless Texas vocal
EXTD=
EXTT0=
EXTT1=
EXTT2=
EXTT3=
EXTT4=
EXTT5=
EXTT6=
EXTT7=
EXTT8=
EXTT9=
EXTT10=
EXTT11=
EXTT12=
EXTT13=
EXTT14=
EXTT15=
EXTT16=
EXTT17=
EXTT18=
PLAYORDER=
